<?xml version="1.0" standalone="no"?>
<!DOCTYPE svg PUBLIC "-//W3C//DTD SVG 20010904//EN"
 "http://www.w3.org/TR/2001/REC-SVG-20010904/DTD/svg10.dtd">
<svg version="1.0" xmlns="http://www.w3.org/2000/svg"
 width="3840.000000pt" height="2160.000000pt" viewBox="0 0 3840.000000 2160.000000"
 preserveAspectRatio="xMidYMid meet">

<g transform="translate(0.000000,2160.000000) scale(0.100000,-0.100000)"
fill="#000000" stroke="none">
<path d="M7160 13514 l0 -2557 23 20 c12 11 40 32 62 46 22 14 142 97 267 184
264 183 670 465 1008 699 69 47 179 124 245 170 66 46 181 125 254 176 74 51
158 109 185 128 28 19 110 75 181 124 72 49 147 103 168 119 l37 29 0 812 0
812 -122 90 c-68 50 -195 144 -283 209 -88 65 -227 169 -310 230 -82 61 -289
214 -460 340 -690 509 -1231 908 -1242 918 -10 7 -13 -504 -13 -2549z"/>
<path d="M2910 10844 l1 -3669 657 -477 c361 -262 905 -657 1208 -877 304
-221 555 -401 558 -401 3 0 6 1642 6 3649 l0 3648 -627 464 c-1267 936 -1401
1035 -1568 1157 -93 69 -185 136 -202 150 l-33 24 0 -3668z"/>
<path d="M22665 13720 c-750 -53 -1362 -314 -1822 -777 -350 -353 -587 -788
-717 -1318 -119 -488 -127 -1099 -21 -1627 117 -588 382 -1090 771 -1468 529
-513 1240 -767 2109 -754 319 4 495 23 770 81 846 178 1481 695 1810 1473 43
100 114 310 106 314 -10 5 -1659 1 -1663 -4 -2 -3 -17 -36 -33 -75 -84 -205
-225 -361 -419 -466 -253 -136 -644 -167 -1006 -78 -454 112 -767 452 -871
944 -22 108 -43 281 -35 301 5 12 306 14 2020 14 l2014 0 7 227 c33 1022 -252
1886 -810 2449 -66 66 -147 143 -180 170 -389 320 -868 516 -1415 578 -166 19
-466 27 -615 16z m534 -1184 c173 -45 294 -103 428 -203 252 -189 414 -517
435 -883 l3 -45 -1209 -3 c-666 -1 -1213 1 -1218 6 -16 16 62 313 114 432 169
392 420 611 797 699 188 44 473 42 650 -3z"/>
<path d="M32755 13724 c-602 -47 -1064 -195 -1485 -476 -156 -105 -232 -168
-375 -312 -404 -407 -658 -931 -759 -1566 -61 -385 -63 -848 -5 -1220 177
-1139 852 -1940 1894 -2248 170 -51 381 -91 590 -113 154 -16 565 -17 720 0
759 79 1365 374 1814 880 97 110 129 152 214 281 258 393 422 872 467 1362 6
67 15 159 21 202 22 188 -1 605 -51 896 -157 923 -674 1650 -1435 2016 -415
200 -819 291 -1325 298 -129 2 -257 2 -285 0z m400 -1196 c189 -22 403 -105
540 -209 298 -227 490 -611 554 -1109 6 -47 13 -105 16 -130 14 -109 17 -456
6 -577 -36 -387 -92 -623 -202 -852 -220 -462 -596 -701 -1099 -701 -413 0
-764 185 -987 519 -138 208 -231 466 -283 786 -27 167 -39 604 -21 805 40 447
163 799 370 1060 250 313 653 462 1106 408z"/>
<path d="M28795 13689 c-727 -55 -1298 -289 -1706 -700 -335 -337 -552 -780
-649 -1321 -56 -313 -53 -216 -57 -2060 l-4 -1708 781 0 780 0 0 1228 c0 1249
3 1518 21 1767 42 609 182 933 510 1178 162 123 351 204 583 253 98 20 160 26
326 31 198 5 269 0 458 -34 l32 -5 -2 643 -3 643 -50 13 c-250 67 -683 97
-1020 72z"/>
<path d="M13845 13568 c-3 -7 -4 -1284 -3 -2838 l3 -2825 772 -3 773 -2 2
1137 3 1138 1225 0 1225 0 3 -1137 2 -1138 770 0 770 0 0 2840 0 2840 -770 0
-770 0 -2 -1045 c-2 -575 -6 -1045 -10 -1045 -5 0 -557 0 -1228 0 l-1220 0 0
1045 0 1045 -770 0 c-607 0 -772 -3 -775 -12z"/>
<path d="M9464 10392 c-281 -203 -1618 -1163 -1934 -1390 -195 -140 -359 -259
-365 -264 -7 -6 -5 -12 5 -18 9 -5 456 -329 995 -721 539 -391 1078 -783 1197
-869 119 -87 219 -155 222 -152 10 9 7 3492 -3 3492 -5 0 -58 -35 -117 -78z"/>
</g>
</svg>
